<?xml version="1.0" encoding="utf-8"?>
<!-- Generator: Adobe Illustrator 16.0.0, SVG Export Plug-In . SVG Version: 6.00 Build 0)  -->
<!DOCTYPE svg PUBLIC "-//W3C//DTD SVG 1.1//EN" "http://www.w3.org/Graphics/SVG/1.1/DTD/svg11.dtd">
<svg version="1.1" id="Capa_1" xmlns="http://www.w3.org/2000/svg" xmlns:xlink="http://www.w3.org/1999/xlink" x="0px" y="0px"
	 width="507.042px" height="107.643px" viewBox="-4.146 196.845 507.042 107.643"
	 enable-background="new -4.146 196.845 507.042 107.643" xml:space="preserve">
<g id="_x33_33333">
	<path display="none" fill="#FFFFFF" d="M21.433,210.698c0,3.505,0,7.01,0,10.514c-8.064,0-16.129,0-24.193,0
		c0-3.484,0-6.969,0-10.453c0.034,0.001,0.067,0.003,0.102,0.003c1.106,0,2.211,0.001,3.317,0.001c0.211,0,0.422-0.003,0.633,0
		c0.13,0.001,0.168,0.043,0.174,0.172c0.011,0.217,0.021,0.435,0.035,0.652c0.041,0.672,0.126,1.339,0.251,2.002
		c0.178,0.944,0.438,1.865,0.794,2.757c0.065,0.162,0.056,0.182-0.109,0.229c-0.536,0.155-1.063,0.334-1.582,0.538
		c-0.246,0.097-0.491,0.198-0.734,0.313c0.021,0.048,0.055,0.082,0.085,0.118c0.144,0.169,0.32,0.304,0.481,0.456
		c0.035,0.033,0.062,0.014,0.091,0c0.656-0.293,1.338-0.512,2.026-0.712c0.12-0.035,0.128-0.03,0.183,0.077
		c0.183,0.354,0.369,0.705,0.582,1.041c0.498,0.791,1.084,1.506,1.792,2.12c0.124,0.108,0.26,0.183,0.417,0.222
		c0.214,0.053,0.429,0.105,0.643,0.16c0.492,0.124,0.991,0.207,1.495,0.26c0.038,0.004,0.073,0.012,0.108,0.026
		c0.033,0.013,0.064-0.005,0.077-0.034c0.015-0.035-0.018-0.045-0.043-0.055c-0.025-0.01-0.051-0.021-0.076-0.029
		c-0.896-0.303-1.666-0.806-2.336-1.469c-0.639-0.633-1.147-1.361-1.571-2.15c-0.074-0.138-0.145-0.277-0.217-0.417
		c0.053-0.035,0.108-0.04,0.161-0.052c0.667-0.145,1.34-0.258,2.017-0.344c0.606-0.077,1.216-0.132,1.826-0.167
		c0.295-0.017,0.59-0.035,0.886-0.038c0.117-0.001,0.146,0.029,0.148,0.142c0.001,0.031,0,0.061,0,0.092
		C8.9,217.864,8.9,219.055,8.9,220.246c0,0.034-0.012,0.072,0.012,0.105c0.01-0.006,0.017-0.009,0.021-0.013
		c0.257-0.258,0.515-0.515,0.771-0.773c0.066-0.066,0.098-0.145,0.097-0.238c-0.003-0.188-0.002-0.375-0.002-0.562
		c0-0.67,0-1.341,0-2.011c0-0.067-0.004-0.136-0.001-0.204c0.004-0.086,0.028-0.108,0.112-0.111c0.021-0.001,0.041,0,0.061,0
		c0.452,0.015,0.903,0.039,1.354,0.073c0.477,0.036,0.953,0.085,1.428,0.146c0.566,0.073,1.128,0.166,1.688,0.28
		c0.103,0.021,0.207,0.041,0.308,0.068c0.072,0.019,0.08,0.043,0.052,0.112c-0.005,0.013-0.011,0.025-0.017,0.037
		c-0.496,0.979-1.116,1.866-1.913,2.626c-0.021,0.02-0.052,0.034-0.059,0.07c0.08,0,0.155-0.019,0.229-0.038
		c0.474-0.122,0.937-0.279,1.397-0.443c0.029-0.01,0.053-0.025,0.071-0.053c0.229-0.337,0.475-0.664,0.682-1.016
		c0.178-0.302,0.343-0.61,0.507-0.92c0.058-0.111,0.086-0.123,0.203-0.089c0.473,0.137,0.94,0.293,1.403,0.459
		c0.042,0.015,0.065,0.016,0.099-0.01c0.173-0.131,0.345-0.265,0.509-0.409c0.042-0.037,0.078-0.082,0.122-0.129
		c-0.043-0.02-0.083-0.038-0.123-0.055c-0.51-0.216-1.038-0.385-1.566-0.55c-0.051-0.016-0.104-0.031-0.154-0.053
		c-0.064-0.028-0.074-0.052-0.053-0.121c0.018-0.059,0.041-0.116,0.062-0.173c0.365-0.962,0.631-1.951,0.802-2.966
		c0.11-0.654,0.175-1.313,0.209-1.977c0.007-0.132,0.012-0.265,0.019-0.397c0.005-0.101,0.036-0.134,0.134-0.147
		c0.023-0.003,0.047-0.002,0.071-0.002c0.123,0,0.245,0.001,0.367,0.001c1.16,0,2.32,0,3.481,0c0.023,0,0.048-0.003,0.071,0
		c0.056,0.009,0.06-0.029,0.064-0.067C21.423,210.698,21.428,210.698,21.433,210.698z"/>
	<path fill="#333333" d="M5.048,249.335c0.019-0.152,0.032-0.303,0.263-0.267c0.095,0.015,0.196,0.003,0.294,0.003
		c4.784,0,9.564,0,14.349,0c0.504,0,1.01,0.004,1.513,0.005c0.1,0,0.199,0.004,0.295-0.009c0.401-0.052,0.528-0.185,0.549-0.585
		c0.031-0.529,0.051-1.059,0.08-1.587c0.141-2.646,0.412-5.278,0.864-7.892c0.704-4.052,1.801-8.002,3.305-11.847
		c0.088-0.229,0.184-0.455,0.257-0.688c0.086-0.276,0.044-0.373-0.223-0.485c-0.204-0.086-0.42-0.146-0.634-0.211
		c-2.179-0.661-4.353-1.332-6.456-2.197c-0.165-0.067-0.326-0.141-0.505-0.219c0.181-0.188,0.33-0.366,0.502-0.514
		c0.673-0.575,1.383-1.107,2.096-1.633c0.139-0.101,0.236-0.099,0.408-0.039c1.911,0.662,3.834,1.287,5.785,1.834
		c0.481,0.137,0.594,0.087,0.834-0.355c0.676-1.237,1.356-2.469,2.089-3.675c0.856-1.405,1.868-2.709,2.812-4.058
		c0.077-0.109,0.174-0.171,0.295-0.212c1.898-0.656,3.805-1.284,5.76-1.77c0.306-0.076,0.616-0.151,0.943-0.149
		c-0.03,0.145-0.156,0.2-0.243,0.281c-3.286,3.032-5.84,6.577-7.886,10.484c-0.024,0.049-0.049,0.098-0.071,0.149
		c-0.114,0.274-0.082,0.371,0.216,0.448c0.419,0.107,0.845,0.187,1.27,0.272c2.305,0.456,4.623,0.829,6.956,1.119
		c1.958,0.242,3.921,0.437,5.889,0.581c1.86,0.139,3.719,0.229,5.583,0.291c0.083,0.002,0.167,0.003,0.252,0
		c0.344-0.015,0.444-0.102,0.46-0.444c0.012-0.271-0.005-0.543-0.005-0.815c-0.001-2.676,0-5.353,0-8.029
		c-0.001-0.747,0.002-1.494-0.009-2.242c-0.005-0.376,0.127-0.691,0.396-0.953c1.06-1.03,2.121-2.058,3.182-3.085
		c0.019-0.02,0.046-0.029,0.089-0.055c0.099,0.132,0.051,0.284,0.051,0.421c0,4.755-0.004,9.512-0.007,14.266
		c0,0.122-0.001,0.244,0,0.367c0.011,0.453,0.131,0.572,0.613,0.568c1.22-0.011,2.437-0.083,3.654-0.15
		c2.517-0.14,5.026-0.36,7.527-0.668c2.792-0.343,5.565-0.796,8.315-1.375c0.215-0.046,0.442-0.067,0.663-0.208
		c-0.299-0.556-0.588-1.113-0.893-1.662c-1.748-3.152-3.843-6.06-6.477-8.584c-2.762-2.648-5.936-4.659-9.63-5.868
		c-0.106-0.034-0.21-0.078-0.313-0.118c-0.105-0.039-0.24-0.08-0.178-0.219c0.053-0.117,0.18-0.187,0.316-0.136
		c0.146,0.057,0.292,0.088,0.446,0.103c2.079,0.214,4.137,0.542,6.165,1.04c0.882,0.215,1.767,0.423,2.65,0.636
		c0.65,0.157,1.209,0.457,1.723,0.887c2.919,2.45,5.333,5.308,7.388,8.463c0.876,1.345,1.647,2.746,2.398,4.159
		c0.228,0.428,0.262,0.446,0.754,0.308c2.839-0.799,5.65-1.674,8.354-2.843c0.121-0.053,0.232-0.13,0.376,0
		c0.663,0.608,1.391,1.145,1.983,1.822c0.125,0.143,0.263,0.279,0.351,0.469c-1.004,0.46-2.011,0.864-3.026,1.25
		c-2.139,0.813-4.312,1.53-6.519,2.147c-0.679,0.19-0.716,0.268-0.45,0.914c1.469,3.563,2.541,7.24,3.275,11.01
		c0.515,2.644,0.866,5.309,1.035,7.994c0.055,0.867,0.099,1.735,0.144,2.602c0.026,0.514,0.184,0.684,0.72,0.689
		c0.869,0.009,1.739-0.003,2.608-0.003c4.558,0.002,9.117,0.003,13.675,0.007c0.141,0,0.28,0.008,0.42,0.013
		c0,0.923,0,1.848,0,2.772c-0.093-0.061-0.138,0.009-0.14,0.072c-0.008,0.23-0.155,0.255-0.341,0.241c-0.084-0.005-0.168,0-0.252,0
		c-5.245,0-10.49-0.001-15.735-0.002c-0.154,0-0.309-0.006-0.462,0.005c-0.287,0.02-0.411,0.12-0.468,0.378
		c-0.02,0.093-0.019,0.189-0.023,0.284c-0.048,0.895-0.09,1.79-0.145,2.684c-0.13,2.17-0.401,4.325-0.769,6.469
		c-0.646,3.771-1.626,7.456-2.99,11.044c-0.208,0.547-0.437,1.086-0.643,1.635c-0.137,0.362-0.07,0.479,0.306,0.614
		c0.052,0.019,0.105,0.037,0.158,0.052c2.426,0.667,4.796,1.495,7.148,2.371c0.107,0.041,0.252,0.036,0.319,0.198
		c-0.888,0.723-1.737,1.491-2.71,2.115c-0.162,0.104-0.294,0.102-0.463,0.034c-1.254-0.506-2.548-0.906-3.845-1.297
		c-0.655-0.196-1.308-0.399-1.967-0.582c-0.316-0.087-0.466-0.015-0.636,0.246c-0.06,0.092-0.104,0.192-0.154,0.29
		c-1.297,2.538-2.821,4.938-4.599,7.189c-0.344,0.434-0.752,0.71-1.273,0.871c-0.521,0.16-1.041,0.322-1.555,0.501
		c-1.213,0.422-2.438,0.811-3.7,1.071c-0.23,0.048-0.461,0.125-0.72,0.119c0.044-0.147,0.132-0.199,0.199-0.264
		c0.992-0.961,1.972-1.933,2.876-2.973c1.969-2.265,3.569-4.765,4.982-7.383c0.065-0.12,0.133-0.239,0.19-0.363
		c0.118-0.251,0.08-0.328-0.196-0.412c-0.053-0.016-0.11-0.02-0.165-0.032c-2.282-0.495-4.583-0.886-6.896-1.204
		c-1.469-0.203-2.941-0.37-4.417-0.517c-1.658-0.165-3.32-0.286-4.983-0.368c-1.063-0.053-2.128-0.095-3.192-0.155
		c-0.699-0.039-0.804,0.044-0.804,0.729c0.004,3.559,0.007,7.119,0.021,10.678c0.001,0.479-0.152,0.862-0.507,1.198
		c-0.95,0.905-1.883,1.827-2.825,2.739c-0.086,0.083-0.149,0.202-0.298,0.223c-0.138-0.113-0.096-0.271-0.096-0.413
		c-0.001-4.388,0-8.776,0.003-13.165c0-0.475,0.016-0.951,0.01-1.427c-0.006-0.463-0.121-0.571-0.609-0.566
		c-0.322,0.002-0.644,0.041-0.966,0.048c-1.876,0.047-3.75,0.176-5.62,0.325c-1.828,0.145-3.649,0.342-5.467,0.573
		c-2.639,0.334-5.25,0.814-7.852,1.344c-0.087,0.017-0.195,0.015-0.258,0.128c0.247,0.463,0.5,0.933,0.751,1.402
		c1.595,2.966,3.519,5.71,5.893,8.146c2.787,2.856,6.031,5.053,9.86,6.407c0.291,0.102,0.585,0.189,0.875,0.291
		c0.131,0.045,0.179,0.127,0.066,0.244c-0.046,0.046-0.122,0.072-0.123,0.152c-0.056,0-0.112,0-0.167,0
		c-0.124-0.164-0.312-0.147-0.49-0.167c-0.612-0.067-1.224-0.132-1.835-0.208c-1.64-0.204-3.255-0.541-4.858-0.931
		c-1.057-0.257-2.132-0.461-3.133-0.898c-0.152-0.067-0.322-0.113-0.435-0.242c-0.291-0.335-0.65-0.598-0.979-0.893
		c-2.94-2.648-5.343-5.708-7.378-9.049c-0.576-0.947-1.104-1.92-1.607-2.906c-0.218-0.426-0.377-0.489-0.841-0.355
		c-0.549,0.159-1.097,0.325-1.646,0.491c-2.258,0.684-4.521,1.356-6.657,2.364c-0.155,0.073-0.252,0.043-0.37-0.057
		c-0.441-0.379-0.894-0.743-1.328-1.129c-0.379-0.338-0.741-0.696-1.012-1.145c0.091-0.044,0.164-0.083,0.239-0.116
		c2.959-1.241,5.969-2.342,9.075-3.188c0.162-0.044,0.325-0.089,0.478-0.155c0.293-0.128,0.367-0.29,0.271-0.59
		c-0.063-0.195-0.144-0.383-0.222-0.572c-1.852-4.53-3.002-9.233-3.687-14.049c-0.268-1.898-0.453-3.803-0.542-5.717
		c-0.025-0.543-0.041-1.086-0.072-1.628c-0.021-0.379-0.148-0.489-0.537-0.538c-0.296-0.038-0.588,0.005-0.882,0.005
		c-5.132-0.003-10.266-0.001-15.4,0c-0.169,0-0.336,0.008-0.505,0.012c0-0.814,0-1.63,0-2.445
		C5.093,249.62,5.045,249.474,5.048,249.335z M39.584,249.049c2.229,0,4.458-0.002,6.687,0.001c1.949,0.004,3.897,0.018,5.845,0.025
		c0.155,0,0.31,0.002,0.46-0.025c0.273-0.048,0.355-0.145,0.38-0.409c0.01-0.107,0.005-0.217,0.005-0.325
		c-0.001-1.439-0.006-2.879-0.006-4.32c0.002-4.576,0.004-9.154,0.006-13.731c0-0.137,0.004-0.271-0.006-0.407
		c-0.015-0.182-0.115-0.305-0.303-0.344c-0.123-0.025-0.249-0.052-0.373-0.053c-0.953-0.011-1.906-0.032-2.857-0.086
		c-1.23-0.068-2.463-0.106-3.691-0.201c-1.814-0.138-3.624-0.309-5.43-0.535c-1.887-0.237-3.768-0.515-5.636-0.863
		c-1.085-0.202-2.165-0.434-3.247-0.65c-0.525-0.105-0.709-0.01-0.915,0.467c-0.06,0.137-0.116,0.276-0.172,0.416
		c-1.172,2.957-2.078,5.986-2.729,9.09c-0.363,1.729-0.653,3.469-0.879,5.22c-0.193,1.495-0.324,2.996-0.426,4.499
		c-0.038,0.555-0.07,1.11-0.093,1.667c-0.018,0.432,0.106,0.561,0.552,0.589c0.154,0.011,0.309,0.005,0.463,0.003
		c1.681-0.008,3.364-0.022,5.046-0.025C34.704,249.048,37.144,249.049,39.584,249.049z M69.963,249.071
		c4.109,0,8.218,0.001,12.327,0c0.196,0,0.394-0.006,0.588-0.024c0.441-0.043,0.507-0.105,0.486-0.535
		c-0.027-0.556-0.053-1.112-0.092-1.667c-0.116-1.721-0.282-3.436-0.507-5.148c-0.314-2.385-0.77-4.743-1.366-7.076
		c-0.614-2.401-1.387-4.751-2.322-7.052c-0.21-0.516-0.31-0.561-0.853-0.444c-1.448,0.313-2.902,0.597-4.364,0.842
		c-2.303,0.384-4.617,0.693-6.942,0.93c-1.923,0.195-3.849,0.339-5.777,0.443c-1.26,0.065-2.521,0.122-3.783,0.122
		c-0.643,0-0.731,0.096-0.729,0.71c0.003,0.937,0.016,1.873,0.019,2.812c0.002,1.766,0.002,3.533,0,5.299
		c-0.006,3.355-0.014,6.71-0.019,10.065c-0.001,0.631,0.103,0.726,0.758,0.729c0.015,0,0.028,0,0.042,0
		c2.524-0.002,5.047-0.004,7.572-0.005C66.653,249.071,68.307,249.071,69.963,249.071z M39.619,252.173c-4.206,0-8.414,0-12.619,0
		c-0.126,0-0.254-0.005-0.378,0.003c-0.314,0.021-0.415,0.126-0.421,0.438c-0.001,0.108,0.01,0.217,0.017,0.325
		c0.101,1.272,0.202,2.544,0.299,3.817c0.153,1.991,0.432,3.967,0.799,5.931c0.554,2.981,1.336,5.907,2.359,8.77
		c0.266,0.744,0.555,1.479,0.846,2.212c0.168,0.426,0.353,0.512,0.815,0.435c0.042-0.006,0.082-0.02,0.123-0.029
		c2.788-0.597,5.597-1.079,8.427-1.445c2.458-0.319,4.924-0.539,7.396-0.691c1.564-0.096,3.133-0.168,4.703-0.185
		c0.168-0.002,0.337-0.001,0.505-0.016c0.33-0.03,0.447-0.148,0.469-0.461c0.007-0.095,0.003-0.19,0.002-0.285
		c-0.002-1.222-0.006-2.445-0.006-3.667c0.001-4.808,0.004-9.616,0.006-14.424c0-0.703-0.026-0.728-0.764-0.728
		C48.005,252.172,43.812,252.173,39.619,252.173z M70.041,252.173c-4.207,0-8.413,0-12.618,0c-0.141,0-0.282-0.002-0.421,0.006
		c-0.213,0.012-0.334,0.127-0.357,0.331c-0.014,0.122-0.019,0.244-0.018,0.366c0.004,0.91,0.018,1.819,0.018,2.729
		c0.001,4.305,0.001,8.612,0,12.917c0,0.882-0.02,1.765-0.015,2.647c0.001,0.438,0.126,0.559,0.576,0.57
		c1.345,0.036,2.688,0.08,4.03,0.165c1.077,0.066,2.154,0.109,3.229,0.2c1.951,0.165,3.9,0.359,5.841,0.62
		c1.663,0.224,3.322,0.477,4.97,0.788c0.974,0.185,1.944,0.394,2.917,0.589c0.546,0.11,0.687,0.041,0.895-0.474
		c0.224-0.555,0.438-1.115,0.646-1.677c1.095-2.955,1.91-5.984,2.496-9.071c0.39-2.056,0.68-4.126,0.874-6.209
		c0.117-1.258,0.207-2.516,0.268-3.778c0.031-0.652-0.021-0.719-0.708-0.719C78.454,252.172,74.248,252.173,70.041,252.173z"/>
	<path display="none" fill="#FFFFFF" d="M10.633,199.551c0,0.021-0.018,0.027-0.029,0.039c-0.028,0.029-0.017,0.049,0.016,0.061
		c0.07,0.025,0.142,0.047,0.212,0.073c0.929,0.339,1.716,0.889,2.392,1.604c0.576,0.61,1.043,1.297,1.429,2.04
		c0.062,0.117,0.123,0.234,0.183,0.351c-0.016,0.029-0.042,0.028-0.063,0.032c-0.631,0.133-1.265,0.253-1.905,0.337
		c-0.441,0.058-0.883,0.107-1.327,0.144c-0.454,0.037-0.908,0.069-1.363,0.081c-0.078,0.002-0.156,0.012-0.234,0.012
		c-0.118,0.001-0.146-0.026-0.147-0.142c-0.001-0.119,0.002-0.238,0.002-0.357c0-1.099,0.001-2.198,0.001-3.297
		c0-0.035,0.01-0.075-0.024-0.103c-0.036,0.005-0.051,0.035-0.072,0.056c-0.229,0.229-0.455,0.459-0.686,0.686
		c-0.086,0.084-0.124,0.18-0.123,0.3c0.003,0.892,0.003,1.783,0.004,2.674c0,0.171-0.025,0.192-0.195,0.182
		c-0.258-0.015-0.516-0.026-0.774-0.039c-0.403-0.021-0.807-0.051-1.209-0.092c-0.357-0.037-0.715-0.079-1.071-0.129
		c-0.562-0.08-1.12-0.178-1.673-0.302c-0.013-0.003-0.027-0.004-0.04-0.008c-0.067-0.021-0.076-0.041-0.048-0.104
		c0.014-0.031,0.03-0.061,0.046-0.091c0.343-0.656,0.731-1.281,1.208-1.849c0.219-0.261,0.457-0.504,0.698-0.745
		c0.016-0.016,0.038-0.029,0.048-0.066c-0.063-0.002-0.119,0.018-0.175,0.03c-0.307,0.065-0.603,0.163-0.897,0.268
		c-0.125,0.044-0.251,0.085-0.377,0.125c-0.127,0.04-0.226,0.109-0.309,0.218c-0.432,0.563-0.801,1.165-1.116,1.8
		c-0.012,0.024-0.023,0.05-0.038,0.073c-0.041,0.065-0.078,0.083-0.154,0.061c-0.16-0.045-0.318-0.096-0.477-0.146
		c-0.315-0.098-0.628-0.198-0.933-0.325c-0.041-0.017-0.072-0.018-0.112,0.008c-0.236,0.156-0.442,0.349-0.658,0.53
		c0.016,0.041,0.051,0.04,0.078,0.05c0.57,0.219,1.145,0.427,1.734,0.594c0.013,0.004,0.026,0.008,0.039,0.013
		c0.091,0.034,0.107,0.063,0.074,0.154c-0.05,0.138-0.105,0.272-0.156,0.41c-0.331,0.898-0.569,1.821-0.725,2.766
		c-0.089,0.537-0.155,1.076-0.187,1.62c-0.013,0.224-0.023,0.448-0.035,0.672c-0.001,0.024-0.001,0.048-0.006,0.071
		c-0.014,0.065-0.044,0.09-0.114,0.095c-0.037,0.002-0.074,0.001-0.112,0.001c-1.272,0-2.545,0-3.817,0
		c-0.021,0-0.041,0.001-0.061,0c-0.045-0.003-0.081,0.003-0.083,0.061c-0.001,0.016-0.012,0.033-0.034,0.018
		c0-3.505,0-7.01,0-10.515C1.705,199.551,6.169,199.551,10.633,199.551z"/>
	<path display="none" fill="#FFFFFF" d="M21.433,209.984c-0.041,0.001-0.082,0.003-0.123,0.003c-1.245,0-2.491,0.001-3.736,0
		c-0.071,0-0.142,0.011-0.214,0.001c-0.094-0.013-0.125-0.04-0.131-0.135c-0.007-0.136-0.011-0.272-0.017-0.408
		c-0.022-0.479-0.066-0.957-0.131-1.432c-0.166-1.206-0.445-2.384-0.894-3.518c-0.019-0.047-0.039-0.095-0.054-0.143
		c-0.024-0.076-0.006-0.116,0.065-0.148c0.038-0.017,0.077-0.028,0.116-0.039c0.753-0.212,1.484-0.487,2.201-0.798
		c0.019-0.008,0.036-0.018,0.058-0.029c-0.065-0.112-0.153-0.202-0.246-0.287c-0.105-0.097-0.215-0.188-0.322-0.283
		c-0.028-0.025-0.052-0.032-0.089-0.014c-0.518,0.252-1.067,0.421-1.615,0.592c-0.133,0.042-0.266,0.083-0.399,0.124
		c-0.113,0.033-0.151,0.018-0.204-0.089c-0.122-0.247-0.25-0.491-0.39-0.728c-0.494-0.836-1.077-1.603-1.79-2.266
		c-0.08-0.074-0.167-0.14-0.237-0.224c-0.027-0.032-0.068-0.043-0.105-0.06c-0.243-0.11-0.503-0.161-0.76-0.225
		c-0.39-0.098-0.781-0.182-1.179-0.233c-0.148-0.019-0.296-0.035-0.445-0.052c-0.043-0.005-0.089-0.001-0.119-0.042
		c3.585,0,7.169,0,10.759,0C21.433,203.028,21.433,206.506,21.433,209.984z"/>
	<path display="none" fill="#FEFEFE" d="M21.418,210.698c0-0.035-0.011-0.071,0.015-0.102c0,0.034,0,0.068,0,0.102
		C21.428,210.698,21.423,210.698,21.418,210.698z"/>
	<path display="none" fill="#FEFEFE" d="M13.04,210.77c0.592,0,1.184,0.001,1.775,0c0.408-0.001,0.816-0.004,1.225-0.006
		c0.037,0,0.075-0.002,0.112,0.001c0.108,0.007,0.139,0.039,0.134,0.147c-0.006,0.139-0.013,0.278-0.022,0.417
		c-0.025,0.376-0.057,0.752-0.104,1.126c-0.055,0.438-0.125,0.874-0.213,1.307c-0.159,0.777-0.378,1.536-0.662,2.277
		c-0.014,0.035-0.027,0.069-0.042,0.104c-0.05,0.12-0.095,0.143-0.222,0.117c-0.263-0.054-0.524-0.112-0.788-0.163
		c-0.454-0.087-0.91-0.157-1.368-0.216c-0.438-0.057-0.877-0.1-1.317-0.134c-0.298-0.024-0.597-0.033-0.896-0.051
		c-0.231-0.013-0.462-0.019-0.693-0.021c-0.03,0-0.06-0.007-0.09-0.013c-0.045-0.01-0.069-0.041-0.073-0.086
		c-0.002-0.034-0.001-0.068-0.001-0.102c0-1.146,0.001-2.292,0.001-3.438c0-0.361-0.001-0.721-0.001-1.082
		c0-0.027-0.001-0.054,0.001-0.081c0.006-0.066,0.026-0.09,0.092-0.103c0.036-0.007,0.074-0.006,0.112-0.006
		c0.472,0.002,0.945,0.005,1.418,0.006C11.958,210.771,12.499,210.77,13.04,210.77z"/>
	<path display="none" fill="#FEFEFE" d="M5.67,210.765c0.401,0,0.803,0,1.205,0c0.612,0,1.224-0.001,1.836-0.001
		c0.003,0,0.007,0,0.01,0c0.159,0,0.184,0.024,0.184,0.182c-0.001,0.84-0.003,1.681-0.004,2.521c0,0.442,0,0.884,0,1.327
		c0,0.235,0.004,0.469,0.004,0.704c0,0.154-0.021,0.178-0.177,0.178c-0.306,0-0.612,0.014-0.917,0.031
		c-0.468,0.025-0.935,0.062-1.402,0.11c-0.564,0.059-1.125,0.137-1.684,0.233c-0.354,0.061-0.708,0.132-1.059,0.211
		c-0.132,0.029-0.156,0.018-0.207-0.111c-0.227-0.576-0.415-1.165-0.563-1.766c-0.145-0.584-0.255-1.175-0.332-1.772
		c-0.055-0.428-0.095-0.858-0.123-1.289c-0.009-0.139-0.016-0.279-0.022-0.418c-0.004-0.107,0.011-0.123,0.118-0.134
		c0.047-0.004,0.095-0.006,0.143-0.006C3.677,210.764,4.673,210.765,5.67,210.765z"/>
	<path display="none" fill="#FFFFFF" d="M13.031,209.988c-1.017,0-2.034,0-3.051,0c-0.179,0-0.186-0.006-0.185-0.182
		c0-1.204,0.001-2.408,0.001-3.612c0-0.306-0.001-0.612-0.001-0.918c0-0.023-0.001-0.047,0-0.071
		c0.005-0.078,0.034-0.108,0.114-0.115c0.041-0.004,0.081-0.004,0.122-0.004c0.381-0.004,0.762-0.022,1.141-0.046
		c0.6-0.038,1.198-0.093,1.794-0.173c0.687-0.092,1.368-0.212,2.044-0.362c0.01-0.002,0.02-0.005,0.03-0.007
		c0.112-0.019,0.157,0.002,0.198,0.109c0.071,0.184,0.141,0.368,0.205,0.554c0.249,0.717,0.438,1.45,0.572,2.196
		c0.089,0.492,0.157,0.986,0.194,1.485c0.024,0.318,0.049,0.637,0.073,0.956c0.002,0.027,0.004,0.054,0.004,0.082
		c-0.001,0.078-0.026,0.104-0.102,0.11c-0.03,0.002-0.061,0-0.092,0C15.072,209.988,14.052,209.988,13.031,209.988z"/>
	<path display="none" fill="#FFFFFF" d="M5.651,209.988c-1.021,0-2.041,0-3.062,0c-0.167,0-0.18-0.017-0.172-0.181
		c0.015-0.315,0.037-0.631,0.065-0.946c0.047-0.522,0.117-1.04,0.212-1.555c0.142-0.773,0.34-1.532,0.605-2.272
		c0.05-0.141,0.102-0.281,0.157-0.42c0.05-0.128,0.084-0.146,0.217-0.119c0.236,0.049,0.471,0.102,0.708,0.148
		c0.4,0.078,0.802,0.141,1.206,0.197c0.471,0.065,0.944,0.114,1.417,0.155c0.26,0.022,0.522,0.033,0.783,0.05
		c0.326,0.021,0.652,0.032,0.978,0.041c0.109,0.003,0.139,0.033,0.14,0.143c0,0.221-0.004,0.442-0.004,0.663
		c0,1.079,0,2.157,0,3.235c0,0.228,0.003,0.456,0.004,0.684c0,0.031-0.001,0.061-0.004,0.091c-0.006,0.051-0.035,0.08-0.087,0.083
		c-0.034,0.002-0.068,0.001-0.102,0.001C7.692,209.988,6.671,209.988,5.651,209.988z"/>
</g>
<g id="d6e9a1">
	<path display="none" fill="#FEFEFE" d="M10.756,198.673c0,7.77,0,15.54,0.001,23.31c0,0.038-0.009,0.046-0.047,0.046
		c-5.22-0.001-10.439-0.001-15.659,0c-0.038,0-0.047-0.008-0.047-0.046c0.001-3.86,0.001-7.721,0.001-11.581
		c0.008,0.005,0.01,0.013,0.01,0.022c0,0.189,0.012,0.378,0.031,0.567c0.01,0.106,0.018,0.212,0.032,0.317
		c0.019,0.132,0.037,0.263,0.058,0.395c0.031,0.195,0.069,0.388,0.11,0.58c0.031,0.143,0.07,0.285,0.105,0.427
		c0.052,0.213,0.117,0.422,0.187,0.63c0.055,0.165,0.116,0.328,0.177,0.491c0.116,0.309,0.25,0.61,0.392,0.908
		c0.071,0.15,0.148,0.298,0.227,0.444c0.086,0.161,0.175,0.321,0.27,0.477c0.158,0.26,0.325,0.513,0.502,0.76
		c0.189,0.262,0.388,0.516,0.596,0.761c0.153,0.181,0.31,0.359,0.473,0.53c0.152,0.16,0.31,0.314,0.471,0.466
		c0.252,0.238,0.511,0.468,0.781,0.686c0.172,0.139,0.345,0.277,0.523,0.407c0.281,0.205,0.569,0.4,0.864,0.584
		c0.322,0.2,0.651,0.388,0.987,0.562c0.29,0.15,0.586,0.29,0.886,0.419c0.247,0.106,0.496,0.208,0.747,0.302
		c0.35,0.13,0.704,0.248,1.063,0.354c0.351,0.103,0.705,0.194,1.063,0.274c0.263,0.059,0.527,0.11,0.793,0.151
		c0.251,0.039,0.504,0.07,0.756,0.102c0.042,0.005,0.088,0.012,0.125-0.025c0.138-0.133,0.269-0.274,0.411-0.403
		c0.086-0.079,0.164-0.167,0.244-0.252c0.044-0.047,0.086-0.099,0.127-0.147c-0.058-0.053-0.129-0.04-0.192-0.047
		c-0.183-0.019-0.365-0.045-0.546-0.073c-0.245-0.038-0.488-0.084-0.729-0.143c-0.175-0.042-0.349-0.088-0.525-0.13
		c-0.143-0.034-0.287-0.063-0.424-0.117c-0.07-0.028-0.134-0.082-0.219-0.051c-0.011,0.004-0.026-0.004-0.039-0.009
		c-0.025-0.01-0.049-0.022-0.075-0.031c-0.215-0.071-0.429-0.145-0.641-0.224c-0.363-0.136-0.718-0.289-1.068-0.456
		c-0.406-0.194-0.801-0.41-1.184-0.648c-0.274-0.17-0.542-0.35-0.803-0.541c-0.16-0.118-0.319-0.237-0.474-0.363
		c-0.112-0.092-0.225-0.184-0.334-0.28c-0.058-0.051-0.109-0.107-0.167-0.157c-0.145-0.127-0.293-0.25-0.419-0.398
		c-0.033-0.038-0.058-0.082-0.099-0.114c-0.083-0.066-0.157-0.144-0.232-0.219c-0.133-0.131-0.252-0.274-0.368-0.419
		c-0.11-0.139-0.224-0.275-0.329-0.418c-0.114-0.154-0.224-0.313-0.331-0.472c-0.136-0.204-0.265-0.412-0.386-0.625
		c-0.137-0.241-0.263-0.488-0.378-0.74c-0.121-0.265-0.23-0.534-0.327-0.809c-0.131-0.375-0.237-0.755-0.319-1.145
		c-0.041-0.192-0.076-0.386-0.108-0.58c-0.02-0.115-0.03-0.23-0.043-0.346c-0.02-0.178-0.041-0.356-0.038-0.536
		c0.001-0.132-0.004-0.264,0.008-0.396c0.009-0.101-0.004-0.203-0.006-0.305c-0.003-0.145,0.024-0.289,0.036-0.433
		c0.017-0.202,0.035-0.403,0.063-0.604c0.036-0.257,0.086-0.511,0.145-0.764c0.05-0.215,0.112-0.427,0.179-0.638
		c0.093-0.291,0.204-0.576,0.325-0.857c0.104-0.241,0.219-0.476,0.341-0.708c0.117-0.223,0.246-0.439,0.381-0.652
		c0.08-0.125,0.16-0.25,0.248-0.37c0.15-0.206,0.305-0.409,0.466-0.606c0.17-0.208,0.351-0.407,0.536-0.602
		c0.144-0.151,0.297-0.294,0.447-0.439c0.049-0.047,0.1-0.091,0.152-0.134c0.09-0.077,0.182-0.151,0.271-0.229
		c0.1-0.086,0.202-0.169,0.305-0.25c0.062-0.048,0.131-0.085,0.19-0.135c0.153-0.128,0.313-0.246,0.479-0.357
		c0.191-0.127,0.389-0.246,0.587-0.361c0.241-0.141,0.484-0.278,0.734-0.403c0.292-0.146,0.588-0.283,0.894-0.397
		c0.061-0.023,0.116-0.083,0.193-0.046c0.006,0.002,0.018-0.008,0.026-0.014c0.063-0.042,0.131-0.07,0.203-0.092
		c0.164-0.051,0.327-0.107,0.489-0.166c0.235-0.084,0.475-0.156,0.718-0.213c0.092-0.021,0.188-0.027,0.275-0.065
		c0.097-0.042,0.143-0.025,0.176,0.077c0.05,0.152,0.098,0.305,0.146,0.458c0.068,0.212,0.137,0.424,0.206,0.636
		c0.067,0.208,0.134,0.418,0.201,0.626c0.034,0.105,0.035,0.105,0.116,0.024c1.298-1.298,2.596-2.596,3.894-3.894
		C10.682,198.752,10.723,198.716,10.756,198.673z"/>
	<path fill="#D5E8A0" d="M49,297.354c0.136-0.171,0.303-0.314,0.458-0.467c5.352-5.182,10.702-10.365,16.053-15.549
		c0.332-0.321,0.336-0.322,0.476,0.096c0.279,0.834,0.553,1.669,0.831,2.503c0.281,0.846,0.565,1.692,0.847,2.539
		c0.202,0.609,0.399,1.22,0.604,1.828c0.136,0.406,0.327,0.474,0.726,0.305c0.359-0.152,0.755-0.174,1.132-0.26
		c1.005-0.228,1.989-0.517,2.959-0.853c0.669-0.231,1.338-0.457,2.017-0.66c0.294-0.088,0.577-0.202,0.834-0.369
		c0.033-0.022,0.083-0.066,0.105-0.056c0.318,0.145,0.545-0.096,0.799-0.187c1.261-0.456,2.482-1.003,3.685-1.588
		c1.029-0.5,2.031-1.045,3.025-1.608c0.817-0.463,1.63-0.934,2.418-1.444c0.683-0.442,1.342-0.916,1.973-1.426
		c0.245-0.198,0.531-0.345,0.784-0.536c0.427-0.325,0.847-0.656,1.259-1c0.369-0.308,0.748-0.606,1.119-0.912
		c0.211-0.175,0.424-0.35,0.624-0.536c0.62-0.58,1.252-1.148,1.845-1.753c0.763-0.777,1.506-1.571,2.209-2.403
		c0.666-0.788,1.302-1.597,1.923-2.418c0.361-0.479,0.691-0.98,1.02-1.479c0.56-0.848,1.089-1.712,1.572-2.603
		c0.502-0.926,0.979-1.865,1.407-2.827c0.501-1.122,0.956-2.261,1.34-3.424c0.278-0.841,0.532-1.687,0.739-2.547
		c0.243-1.009,0.449-2.023,0.597-3.049c0.115-0.801,0.193-1.603,0.26-2.41c0.048-0.577,0.159-1.152,0.146-1.73
		c-0.009-0.404-0.061-0.813-0.025-1.216c0.048-0.529,0.026-1.056,0.033-1.583c0.01-0.717-0.077-1.428-0.159-2.138
		c-0.054-0.461-0.096-0.925-0.176-1.381c-0.134-0.776-0.277-1.549-0.445-2.319c-0.337-1.552-0.776-3.075-1.315-4.57
		c-0.396-1.097-0.85-2.169-1.347-3.228c-0.474-1.009-0.996-1.994-1.559-2.958c-0.497-0.851-1.028-1.682-1.589-2.497
		c-0.441-0.638-0.895-1.269-1.365-1.886c-0.435-0.569-0.903-1.114-1.356-1.667c-0.476-0.583-0.967-1.153-1.514-1.677
		c-0.313-0.299-0.615-0.607-0.959-0.873c-0.168-0.13-0.273-0.302-0.408-0.455c-0.52-0.589-1.131-1.081-1.73-1.589
		c-0.236-0.201-0.449-0.425-0.686-0.627c-0.45-0.383-0.915-0.75-1.378-1.116c-0.635-0.505-1.291-0.98-1.952-1.452
		c-1.072-0.764-2.177-1.48-3.307-2.16c-1.579-0.949-3.207-1.814-4.882-2.589c-1.44-0.666-2.905-1.277-4.401-1.82
		c-0.875-0.317-1.756-0.61-2.641-0.893c-0.105-0.034-0.206-0.085-0.31-0.124c-0.052-0.018-0.116-0.051-0.16-0.036
		c-0.35,0.121-0.614-0.093-0.905-0.204c-0.565-0.215-1.159-0.332-1.747-0.467c-0.723-0.167-1.441-0.352-2.164-0.52
		c-0.992-0.229-1.992-0.418-3.002-0.568c-0.748-0.113-1.495-0.215-2.249-0.292c-0.262-0.027-0.554,0.022-0.795-0.188
		c0.171-0.193,0.34-0.396,0.523-0.587c0.33-0.342,0.649-0.692,1.004-1.005c0.586-0.517,1.125-1.078,1.692-1.613
		c0.154-0.145,0.343-0.119,0.516-0.098c1.04,0.127,2.08,0.251,3.115,0.408c1.096,0.166,2.187,0.369,3.27,0.605
		c1.472,0.319,2.931,0.684,4.378,1.095c1.477,0.422,2.937,0.893,4.378,1.413c1.038,0.375,2.062,0.782,3.081,1.205
		c1.238,0.514,2.457,1.072,3.653,1.672c1.387,0.697,2.744,1.444,4.07,2.243c1.218,0.736,2.404,1.518,3.563,2.334
		c0.737,0.519,1.447,1.072,2.157,1.626c1.113,0.87,2.18,1.789,3.22,2.74c0.663,0.606,1.313,1.225,1.941,1.861
		c0.673,0.683,1.317,1.394,1.95,2.115c0.861,0.982,1.679,1.994,2.457,3.039c0.732,0.984,1.421,1.997,2.071,3.034
		c0.391,0.624,0.756,1.261,1.115,1.903c0.326,0.583,0.64,1.173,0.934,1.772c0.582,1.189,1.136,2.392,1.615,3.625
		c0.252,0.65,0.503,1.303,0.731,1.959c0.287,0.83,0.552,1.667,0.768,2.518c0.146,0.569,0.306,1.134,0.434,1.705
		c0.173,0.769,0.327,1.54,0.457,2.316c0.086,0.525,0.162,1.051,0.238,1.576c0.062,0.42,0.093,0.843,0.135,1.266
		c0.075,0.754,0.127,1.507,0.126,2.265c0,0.035,0.008,0.067,0.042,0.087c0,0.829,0,1.658,0,2.486
		c-0.051,0.032-0.042,0.082-0.042,0.128c0.003,0.555-0.042,1.106-0.079,1.66c-0.055,0.819-0.168,1.631-0.251,2.448
		c-0.08,0.791-0.219,1.572-0.357,2.354c-0.202,1.146-0.468,2.281-0.769,3.407c-0.264,0.993-0.566,1.973-0.904,2.942
		c-0.553,1.586-1.194,3.139-1.938,4.651c-0.402,0.819-0.828,1.625-1.274,2.422c-0.545,0.973-1.133,1.92-1.756,2.849
		c-0.554,0.826-1.14,1.628-1.737,2.425c-0.843,1.126-1.758,2.193-2.697,3.242c-0.622,0.695-1.277,1.361-1.93,2.029
		c-0.682,0.699-1.411,1.352-2.138,2.006c-0.643,0.58-1.306,1.139-1.964,1.701c-0.59,0.505-1.203,0.982-1.819,1.456
		c-1.079,0.829-2.198,1.607-3.341,2.353c-1.081,0.704-2.182,1.376-3.313,2.004c-1.326,0.736-2.665,1.447-4.046,2.085
		c-1.083,0.501-2.17,0.989-3.276,1.442c-1.469,0.603-2.961,1.144-4.467,1.654c-1.097,0.373-2.215,0.681-3.328,1.002
		c-0.455,0.131-0.529,0.306-0.378,0.747c0.231,0.677,0.47,1.353,0.684,2.036c0.189,0.606,0.381,1.211,0.581,1.814
		c0.066,0.202,0.158,0.406,0.143,0.628c-0.014,0-0.028,0-0.042,0c-0.088-0.072-0.202-0.088-0.306-0.117
		c-0.895-0.25-1.792-0.493-2.686-0.745c-1.081-0.306-2.159-0.621-3.24-0.926c-1.221-0.345-2.444-0.679-3.666-1.023
		c-1.188-0.335-2.373-0.68-3.562-1.014c-1.481-0.417-2.965-0.828-4.447-1.242c-0.916-0.255-1.831-0.51-2.745-0.766
		c-1.149-0.322-2.297-0.644-3.444-0.967c-0.148-0.042-0.288-0.098-0.395-0.211C49,297.436,49,297.395,49,297.354z"/>
	<path display="none" fill="#FEFEFE" d="M4.804,196.887c-0.004,0.056,0.018,0.106,0.035,0.157c0.048,0.151,0.095,0.302,0.141,0.454
		c0.052,0.171,0.11,0.34,0.166,0.51c0.037,0.11,0.019,0.154-0.092,0.187c-0.27,0.081-0.541,0.158-0.807,0.251
		c-0.366,0.128-0.728,0.263-1.084,0.414c-0.268,0.114-0.532,0.236-0.795,0.361c-0.334,0.16-0.66,0.338-0.981,0.522
		c-0.274,0.157-0.542,0.326-0.804,0.502c-0.277,0.187-0.548,0.382-0.81,0.589c-0.149,0.119-0.298,0.238-0.441,0.365
		c-0.16,0.141-0.32,0.28-0.476,0.426c-0.176,0.164-0.354,0.327-0.519,0.502c-0.158,0.167-0.317,0.334-0.468,0.508
		c-0.228,0.263-0.45,0.53-0.654,0.812c-0.145,0.2-0.287,0.401-0.421,0.607c-0.151,0.233-0.294,0.47-0.426,0.713
		c-0.108,0.2-0.211,0.401-0.309,0.606c-0.181,0.379-0.336,0.768-0.47,1.165c-0.082,0.243-0.155,0.488-0.219,0.736
		c-0.073,0.282-0.138,0.567-0.187,0.854c-0.033,0.196-0.067,0.392-0.086,0.59c-0.02,0.204-0.047,0.408-0.061,0.613
		c-0.009,0.138-0.021,0.276-0.02,0.416c0,0.011,0.002,0.024-0.01,0.032c0-4.281,0-8.563-0.001-12.844c0-0.041,0.007-0.05,0.049-0.05
		C-1.697,196.887,1.554,196.887,4.804,196.887z"/>
	<path display="none" fill="#FEFEFE" d="M10.756,198.643c-0.026-0.028-0.06-0.042-0.096-0.053c-0.278-0.081-0.557-0.161-0.836-0.242
		c-0.222-0.064-0.443-0.128-0.666-0.192c-0.36-0.104-0.719-0.207-1.079-0.311c-0.288-0.084-0.576-0.17-0.864-0.254
		c-0.296-0.086-0.593-0.17-0.889-0.256c-0.263-0.077-0.524-0.156-0.786-0.232c-0.217-0.063-0.435-0.124-0.652-0.187
		c-0.025-0.007-0.053-0.011-0.074-0.029c1.964,0,3.928,0,5.891-0.002c0.046,0,0.051,0.014,0.051,0.054
		C10.755,197.507,10.756,198.075,10.756,198.643z"/>
</g>
<g id="_x38_f76a5">
	<path display="none" fill="#FEFEFE" d="M7.877,222.07c0-7.773,0-15.546-0.001-23.32c0-0.039,0.008-0.047,0.047-0.047
		c1.179,0.001,2.358,0.001,3.537,0.001c-0.026,0.014-0.05,0.032-0.072,0.054c-0.059,0.061-0.12,0.121-0.18,0.181
		c-0.187,0.186-0.379,0.366-0.553,0.565c-0.036,0.041-0.033,0.052,0.019,0.068c0.07,0.022,0.143,0.019,0.215,0.029
		c0.148,0.02,0.299,0.031,0.446,0.055c0.302,0.049,0.604,0.104,0.9,0.181c0.229,0.059,0.459,0.107,0.685,0.174
		c0.137,0.04,0.258,0.122,0.403,0.142c0.138,0.02,0.27,0.064,0.401,0.111c1.005,0.355,1.955,0.822,2.848,1.404
		c0.422,0.275,0.824,0.576,1.209,0.901c0.042,0.035,0.083,0.071,0.125,0.104c0.026,0.021,0.023,0.055,0.05,0.079
		c0.125,0.108,0.251,0.216,0.375,0.326c0.103,0.091,0.16,0.226,0.292,0.288c0.035,0.017,0.056,0.063,0.086,0.093
		c0.157,0.163,0.308,0.331,0.453,0.504c0.544,0.65,0.993,1.361,1.355,2.127c0.225,0.476,0.415,0.966,0.563,1.472
		c0.141,0.483,0.242,0.975,0.293,1.476c0.02,0.198,0.034,0.395,0.038,0.592c0.004,0.233,0.001,0.466,0,0.699
		c0,0.059,0,0.118-0.007,0.177c-0.019,0.164-0.029,0.33-0.042,0.494c-0.015,0.196-0.042,0.391-0.075,0.584
		c-0.053,0.313-0.124,0.621-0.211,0.925c-0.194,0.674-0.468,1.314-0.806,1.928c-0.243,0.441-0.52,0.861-0.827,1.261
		c-0.278,0.361-0.578,0.704-0.903,1.024c-0.181,0.178-0.355,0.364-0.571,0.504c-0.072,0.047-0.132,0.116-0.198,0.174
		c-0.166,0.146-0.345,0.274-0.518,0.413c-0.244,0.195-0.507,0.366-0.774,0.529c-0.664,0.404-1.353,0.758-2.091,1.009
		c-0.238,0.081-0.471,0.172-0.711,0.245c-0.205,0.061-0.41,0.122-0.615,0.181c-0.125,0.036-0.261,0.032-0.378,0.103
		c-0.03,0.018-0.056,0-0.076-0.023c-0.02-0.022-0.03-0.049-0.039-0.077c-0.181-0.567-0.362-1.133-0.543-1.7
		c-0.007-0.022-0.017-0.045-0.029-0.065c-0.019-0.031-0.041-0.038-0.069-0.007c-0.028,0.03-0.059,0.056-0.088,0.085
		c-0.778,0.779-1.556,1.557-2.333,2.336c-0.427,0.427-0.854,0.854-1.279,1.281C8.11,221.827,7.986,221.942,7.877,222.07z"/>
	<path fill="#9077A6" d="M60.865,203.925c-0.45,0.511-0.959,0.968-1.447,1.444c-1.753,1.711-3.514,3.412-5.272,5.116
		c-3.204,3.11-6.411,6.22-9.617,9.329c-0.119,0.114-0.248,0.221-0.363,0.339c-0.116,0.12-0.208,0.094-0.284-0.028
		c-0.05-0.081-0.089-0.169-0.118-0.261c-0.747-2.262-1.494-4.526-2.24-6.79c-0.037-0.111-0.081-0.22-0.162-0.307
		c-0.084-0.09-0.193-0.164-0.313-0.092c-0.48,0.282-1.042,0.265-1.558,0.409c-0.845,0.236-1.69,0.48-2.534,0.724
		c-0.991,0.288-1.954,0.652-2.931,0.975c-3.045,1.002-5.883,2.418-8.62,4.031c-1.101,0.649-2.185,1.331-3.192,2.111
		c-0.708,0.55-1.448,1.067-2.132,1.649c-0.273,0.231-0.519,0.504-0.818,0.692c-0.887,0.563-1.607,1.301-2.353,2.013
		c-1.341,1.277-2.577,2.646-3.725,4.09c-1.265,1.595-2.404,3.272-3.406,5.035c-1.394,2.45-2.523,5.008-3.323,7.697
		c-0.361,1.215-0.652,2.449-0.87,3.696c-0.136,0.771-0.247,1.548-0.31,2.331c-0.053,0.657-0.096,1.316-0.174,1.972
		c-0.027,0.237-0.03,0.472-0.031,0.707c-0.005,0.93-0.019,1.861-0.001,2.791c0.016,0.79,0.075,1.578,0.157,2.366
		c0.211,2.002,0.625,3.965,1.207,5.895c0.608,2.021,1.392,3.977,2.32,5.88c1.491,3.06,3.341,5.898,5.584,8.494
		c0.599,0.692,1.22,1.364,1.869,2.014c0.122,0.122,0.208,0.306,0.354,0.371c0.548,0.246,0.783,0.784,1.204,1.148
		c0.509,0.442,1.028,0.873,1.545,1.304c0.113,0.094,0.098,0.233,0.208,0.314c0.176,0.132,0.345,0.276,0.517,0.415
		c1.587,1.297,3.247,2.5,4.985,3.598c3.681,2.325,7.595,4.191,11.738,5.609c0.541,0.185,1.087,0.365,1.655,0.441
		c0.596,0.081,1.094,0.41,1.659,0.569c0.933,0.263,1.884,0.458,2.824,0.693c1.223,0.307,2.463,0.528,3.71,0.724
		c0.61,0.096,1.229,0.137,1.84,0.218c0.294,0.039,0.599,0.026,0.885,0.115c0.215,0.066,0.228,0.108,0.08,0.272
		c-0.715,0.793-1.509,1.514-2.28,2.255c-0.247,0.24-0.497,0.479-0.74,0.724c-0.088,0.088-0.187,0.157-0.294,0.215
		c-0.085,0-0.17,0-0.253,0c-0.023-0.012-0.048-0.031-0.073-0.035c-0.847-0.092-1.69-0.206-2.533-0.326
		c-1.728-0.245-3.44-0.567-5.138-0.956c-4.184-0.958-8.222-2.32-12.104-4.107c-3.801-1.749-7.396-3.83-10.741-6.31
		c-2.626-1.95-5.052-4.111-7.271-6.49c-2.197-2.354-4.141-4.89-5.808-7.621c-1.294-2.118-2.399-4.325-3.318-6.619
		c-0.7-1.75-1.302-3.532-1.769-5.355c-0.375-1.464-0.667-2.944-0.866-4.441c-0.089-0.677-0.169-1.355-0.23-2.034
		c-0.06-0.639-0.112-1.281-0.1-1.925c0.001-0.047,0.002-0.096-0.042-0.13c0-0.938,0-1.875,0-2.813c0.05-0.04,0.04-0.098,0.042-0.151
		c0.007-0.284,0.019-0.568,0.034-0.852c0.039-0.674,0.096-1.346,0.166-2.019c0.073-0.714,0.161-1.423,0.265-2.133
		c0.2-1.375,0.483-2.732,0.831-4.078c0.495-1.923,1.126-3.8,1.889-5.639c1.026-2.468,2.278-4.823,3.733-7.078
		c1.418-2.197,3.015-4.266,4.755-6.234c1.971-2.229,4.131-4.268,6.462-6.14c2.009-1.613,4.127-3.083,6.327-4.442
		c4.239-2.62,8.748-4.692,13.513-6.24c1.087-0.352,2.185-0.669,3.284-0.978c0.576-0.161,0.646-0.309,0.462-0.853
		c-0.474-1.39-0.942-2.78-1.41-4.171c-0.022-0.068-0.069-0.138-0.02-0.219c0.039,0.009,0.08,0.015,0.118,0.027
		c1.384,0.38,2.767,0.759,4.148,1.144c3.314,0.922,6.626,1.849,9.94,2.776c3.239,0.905,6.479,1.813,9.717,2.722
		c0.259,0.073,0.536,0.108,0.754,0.287C60.865,203.843,60.865,203.884,60.865,203.925z"/>
	<path display="none" fill="#FEFEFE" d="M7.877,222.101c0.053,0.044,0.12,0.054,0.183,0.072c0.786,0.228,1.572,0.455,2.357,0.682
		c0.804,0.232,1.607,0.464,2.412,0.695c0.335,0.097,0.67,0.191,1.006,0.287c0.01,0.002,0.019,0.004,0.029,0.006
		c0.012-0.021,0-0.038-0.005-0.055c-0.113-0.348-0.227-0.697-0.341-1.044c-0.045-0.136-0.028-0.173,0.112-0.214
		c0.267-0.077,0.533-0.157,0.797-0.245c1.156-0.387,2.25-0.907,3.278-1.563c0.534-0.34,1.047-0.708,1.535-1.112
		c0.565-0.469,1.089-0.979,1.567-1.537c0.422-0.493,0.81-1.011,1.154-1.562c0.353-0.564,0.657-1.154,0.906-1.772
		c0.185-0.46,0.338-0.931,0.458-1.412c0.084-0.337,0.153-0.677,0.202-1.021c0.025-0.178,0.046-0.355,0.064-0.534
		c0.017-0.169,0.03-0.337,0.04-0.506c0.003-0.071,0.006-0.142,0.008-0.213c0-0.013-0.002-0.028,0.01-0.038
		c0,4.264,0,8.529,0.001,12.793c0,0.042-0.01,0.049-0.05,0.049c-5.224-0.001-10.448-0.001-15.672,0c-0.044,0-0.052-0.01-0.052-0.053
		C7.878,223.237,7.877,222.668,7.877,222.101z"/>
	<path display="none" fill="#FEFEFE" d="M23.648,210.311c-0.011-0.009-0.01-0.021-0.01-0.033c0.003-0.162-0.01-0.322-0.024-0.482
		c-0.015-0.17-0.034-0.34-0.056-0.509c-0.048-0.375-0.119-0.745-0.209-1.112c-0.113-0.457-0.259-0.903-0.429-1.341
		c-0.223-0.575-0.491-1.127-0.805-1.658c-0.404-0.684-0.876-1.319-1.409-1.908c-0.539-0.596-1.127-1.137-1.764-1.625
		c-0.811-0.621-1.684-1.142-2.605-1.58c-0.942-0.448-1.921-0.789-2.936-1.029c-0.412-0.097-0.828-0.178-1.247-0.239
		c-0.205-0.03-0.409-0.059-0.615-0.082c-0.006,0-0.012-0.005-0.018-0.009c4.026,0,8.052,0,12.079-0.001
		c0.042,0,0.05,0.008,0.05,0.05C23.648,202.605,23.648,206.458,23.648,210.311z"/>
</g>
<g>
	<g>
		<g>
			<path d="M157.135,261.998c0.303-0.563,0.575-1.172,0.813-1.823c0.238-0.651,0.489-1.475,0.749-2.474l0.326-1.302l0.26-0.977
				l0.912-2.669l0.13-0.391l0.716-2.279l0.065-0.326l0.847-2.409l0.065-0.195l0.521-1.628l0.261-0.781l0.456-1.172l0.39-1.042
				l0.912-2.41l1.172-3.581l0.391-1.042l0.847-2.409l1.302-3.842c0.781-1.345,1.823-2.116,3.125-2.312s2.235-0.293,2.8-0.293
				c1.823,0,2.843,1.303,3.061,3.907c0.086,1.129,0.13,3.799,0.13,8.009c0,1.129,0.032,3.072,0.098,5.828
				c0.065,2.757,0.098,4.179,0.098,4.265l0.13,2.996l0.13,2.019v0.325v1.954v0.391l0.261,2.8l0.065,0.847l0.261,2.409l0.39,2.604
				c0.217,0.999,0.977,1.498,2.279,1.498c0.694,0,1.411-0.217,2.149-0.651c0.955-0.607,1.628-0.955,2.019-1.042
				c0.434-0.086,0.847,0.022,1.237,0.325c0.391,0.305,0.628,0.717,0.716,1.237c0.086,0.609-0.174,1.26-0.782,1.954
				c-0.825,0.912-2.171,1.932-4.037,3.061c-1.302,0.781-2.648,1.172-4.037,1.172c-0.738,0-1.367-0.065-1.888-0.196
				s-1.129-0.412-1.823-0.846c-1.086-0.694-1.867-1.498-2.344-2.41c-0.478-0.912-1.064-2.712-1.758-5.404
				c-0.174-0.607-0.326-1.345-0.456-2.214c-0.13-0.868-0.261-1.671-0.391-2.409l-0.391-3.777l-0.065-3.777l-0.26-5.991l-1.563,4.167
				l-0.26,0.977l-1.042,3.256l-1.367,4.298l-0.391,1.302l-0.846,2.995l-0.391,1.107c-1.042,3.125-1.867,4.993-2.474,5.6
				c-0.608,0.608-1.911,0.912-3.907,0.912l-1.237-0.13l-1.563-0.13c-1.085-0.087-1.878-0.304-2.377-0.651
				c-0.5-0.347-0.879-0.977-1.139-1.888l-0.456-1.433l-0.13-0.391l-0.456-1.368l-0.521-1.563l-0.716-2.93l-1.172-5.209l-0.586-2.474
				v-0.261L146,249.105c-0.044-0.478-0.109-0.824-0.196-1.042c-0.13-0.347-0.413-0.912-0.846-1.693l-0.326,2.148l-0.195,1.628
				l-0.521,3.646l-0.26,1.823l-0.195,1.498l-0.065,0.977l-0.26,2.409l-0.391,3.386c-0.174,1.476-0.326,2.79-0.456,3.939
				c-0.13,1.151-0.195,2.095-0.195,2.833l-0.065,1.954c0.086,0.435-0.196,0.846-0.847,1.237c-0.651,0.391-1.433,0.521-2.344,0.391
				c-0.999-0.13-1.639-0.446-1.921-0.944c-0.283-0.499-0.423-1.53-0.423-3.093v-0.261l0.326-2.409l0.195-2.735v-0.521l0.26-2.149
				v-0.26l0.065-1.302l0.586-4.038l0.13-0.781l0.391-3.256c0.26-2.214,0.531-4.417,0.814-6.609c0.282-2.191,0.423-4.026,0.423-5.502
				l0.261-3.321c0-1.954,0.032-3.375,0.098-4.266c0.065-0.889,0.14-1.682,0.228-2.376l-0.065-2.67
				c0.173-0.433,0.542-0.814,1.106-1.14c0.564-0.325,1.227-0.563,1.986-0.716c0.759-0.152,1.345-0.228,1.758-0.228
				c0.412,0,0.727,0,0.944,0c1.823,0,3.017,0.218,3.581,0.651c0.563,0.435,0.847,1.26,0.847,2.475v0.391l0.065,1.563
				c0,0.348,0.075,1.009,0.228,1.986c0.151,0.977,0.466,2.681,0.944,5.112l1.368,7.228l0.26,1.433l0.521,2.019l0.456,1.954
				l0.586,2.604l0.977,4.493c0.086,0.565,0.26,1.281,0.521,2.149C156.44,259.98,156.7,260.74,157.135,261.998z"/>
		</g>
		<g>
			<path d="M207.86,249.821l0.781-0.195c1.649,0,2.605,0.369,2.866,1.107l-0.717,1.888c-0.087,0.391-0.185,0.977-0.293,1.758
				c-0.109,0.781-0.25,1.888-0.423,3.321l-0.13,0.912v0.391l-0.065,2.54v1.107l-0.13,2.735c0,1.086,0.195,1.899,0.585,2.442
				c0.391,0.543,0.847,0.728,1.368,0.553c0.303-0.086,0.564-0.195,0.782-0.326c0.607-0.303,1.302-0.737,2.083-1.302l0.716-0.651
				l1.888-1.758c0.391-0.391,0.803-0.282,1.237,0.326c0.26,0.348,0.391,0.76,0.391,1.237c0,0.781-0.435,1.846-1.303,3.19
				c-1.302,1.998-3.061,2.996-5.274,2.996c-0.651,0-1.151-0.021-1.498-0.065c-0.348-0.043-0.891-0.196-1.628-0.456
				c-1.911-0.607-3.321-1.823-4.232-3.646l-0.977,0.912l-0.131,0.13l-1.042,1.498l-0.456,0.586
				c-1.042,1.129-2.041,1.856-2.995,2.181c-0.955,0.326-2.367,0.489-4.232,0.489c-3.125,0-5.437-0.835-6.935-2.507
				c-1.498-1.671-2.246-4.2-2.246-7.586v-1.042l0.065-0.976l0.13-1.693l0.195-2.344l0.717-2.344l0.651-2.344l0.195-0.651
				l1.107-2.149l0.912-1.563l0.195-0.26l0.977-1.042c1.649-1.779,3.363-2.669,5.144-2.669c0.998,0,2.279,0.195,3.842,0.586
				c2.344,0.564,3.972,1.085,4.884,1.563c0.912,0.479,1.736,1.237,2.474,2.279L207.86,249.821z M193.99,269.096
				c0.217,0.608,0.651,0.912,1.303,0.912c0.521,0,1.042-0.196,1.563-0.586l0.651-0.716l0.977-1.237l0.586-0.847l1.042-1.433
				l0.39-0.586l1.042-2.019c0.391-0.998,0.673-2.061,0.847-3.19l0.13-0.977l0.26-1.888l0.13-0.781l0.261-1.758l0.13-0.912
				l0.261-1.302c0.086-0.651-0.239-1.27-0.977-1.856c-0.738-0.585-1.585-0.791-2.54-0.618c-0.999,0.174-1.888,0.716-2.669,1.628
				c-0.782,0.912-1.498,2.301-2.149,4.167l-0.261,0.651l-0.456,1.302l-0.456,1.433l-0.13,0.456
				c-0.088,0.348-0.153,0.673-0.195,0.977c-0.174,1.086-0.261,2.344-0.261,3.777v0.781v0.586c0,1.216,0.033,2.041,0.098,2.475
				C193.632,267.968,193.772,268.488,193.99,269.096z"/>
		</g>
		<g>
			<path d="M217.887,263.04v-1.888l0.065-0.521l0.196-2.344v-0.456l0.064-1.954l0.326-2.475c0.173-1.389,0.456-2.354,0.847-2.897
				c0.391-0.542,0.977-0.879,1.758-1.009c0.781-0.13,1.432-0.195,1.953-0.195c0.868,0,1.531,0.108,1.986,0.326
				s0.749,0.478,0.879,0.781l-0.391,2.344l-0.195,2.409l-0.065,1.367l-0.325,3.321l-0.13,4.623l0.195,3.646
				c0,0.608,0.206,1.064,0.619,1.368c0.412,0.304,0.835,0.369,1.27,0.195l2.669-1.237l0.195-0.13l2.93-1.237l1.758-0.586
				c0.173-0.042,0.326-0.042,0.456,0c0.303,0.13,0.521,0.37,0.651,0.716c0.173,0.435,0.141,0.901-0.098,1.4
				c-0.239,0.5-0.814,1.162-1.726,1.986l-2.084,1.954c-1.476,0.954-3.343,1.432-5.6,1.432c-2.388,0-4.32-0.651-5.795-1.953
				c-1.476-1.303-2.214-3.061-2.214-5.275l-0.065-0.325l0.065-1.433L217.887,263.04z M218.473,239.338
				c0.086-0.521,0.326-1.031,0.716-1.53c0.391-0.499,0.977-1.009,1.758-1.53c1.649-1.128,2.93-1.693,3.842-1.693
				c1.389,0,2.387,1.281,2.996,3.842l0.456,2.083c0,0.912-0.446,1.813-1.335,2.703c-0.89,0.89-2.008,1.335-3.354,1.335
				c-2.475,0-4.081-0.933-4.819-2.8c-0.217-0.651-0.325-1.215-0.325-1.693C218.408,239.707,218.429,239.468,218.473,239.338z"/>
		</g>
		<g>
			<path d="M235.468,242.659c0.217-0.824,0.347-1.595,0.391-2.312c0.043-0.716,0.065-1.791,0.065-3.223
				c0-2.301,0.977-3.451,2.931-3.451l2.344,0.13c1.128,0.13,1.845,0.283,2.149,0.456c0.173,0.087,0.358,0.304,0.554,0.651
				c0.195,0.348,0.206,0.63,0.033,0.846l-0.651,0.847c-0.088,0.13-0.152,0.479-0.195,1.042c-0.044,0.564-0.065,1.107-0.065,1.628
				v2.604c0.912,0.304,2.257,0.456,4.038,0.456c0.521,0,1.009,0.142,1.465,0.423c0.456,0.283,0.922,0.793,1.4,1.53
				c0.304,0.348,0.456,0.739,0.456,1.172c0,0.609-0.218,0.967-0.651,1.075c-0.435,0.109-0.803,0.185-1.107,0.228
				c-0.304,0.043-0.63,0.087-0.977,0.13l-2.474,0.326l-2.8,0.586l-0.13,1.889l-0.13,1.758l-0.065,1.368l-0.13,2.279l-0.065,2.344
				v1.237v0.651l0.065,2.995l0.065,0.391l0.196,3.256c0,1.954,0.628,2.93,1.888,2.93c0.824,0,1.931-0.347,3.321-1.042l2.475-1.237
				l3.06-1.042c0.478,0.739,0.717,1.346,0.717,1.823c0,0.956-1.151,2.106-3.451,3.451l-2.93,1.693l-0.195,0.065
				c-1.477,0.738-2.757,1.107-3.842,1.107c-0.521,0-0.955-0.022-1.302-0.065c-2.258-0.304-3.995-1.28-5.209-2.931
				c-0.826-1.042-1.368-2.344-1.628-3.907v-0.326l-0.13-1.888l-0.065-0.326l-0.26-1.758c-0.043-0.173-0.065-0.456-0.065-0.847
				c0-0.433,0.033-1.312,0.098-2.637c0.065-1.324,0.098-2.312,0.098-2.963l0.195-3.256v-0.326v-0.716l0.065-2.083v-0.586v-1.368
				l-0.977-0.13c-1.26-0.217-2.051-0.368-2.376-0.456c-0.326-0.086-0.793-0.238-1.4-0.456c-0.998-0.433-1.627-0.824-1.888-1.172
				c-0.173-0.347-0.261-0.586-0.261-0.716c0-0.521,0.186-0.868,0.554-1.042c0.37-0.173,0.988-0.326,1.856-0.456
				c0.868-0.13,1.389-0.195,1.563-0.195L235.468,242.659z"/>
		</g>
		<g>
			<path d="M259.691,262.975l-0.195,1.433c0,1.911,0.249,3.223,0.749,3.939c0.499,0.716,1.465,1.074,2.898,1.074
				c0.607,0,1.345-0.065,2.214-0.195l0.716-0.13l0.391-0.13l1.368-0.586l1.367-0.521l0.26-0.13l0.196-0.13l1.433-0.781
				c0.868-0.521,1.573-0.977,2.116-1.367c0.542-0.391,0.965-0.738,1.27-1.042l0.912-0.977l1.368-1.498
				c0.217-0.217,0.521-0.325,0.911-0.325c0.651,0,1.15,0.348,1.498,1.042c0.13,0.348,0.195,0.651,0.195,0.912
				c0,0.825-0.76,2.149-2.279,3.972c-0.955,1.172-1.867,2.063-2.734,2.67c-0.869,0.608-2.345,1.411-4.428,2.409
				c-0.825,0.391-1.606,0.672-2.344,0.846c-0.739,0.173-1.347,0.304-1.824,0.391c-0.478,0.087-0.999,0.13-1.563,0.13
				c-0.869,0-1.748-0.163-2.637-0.488c-0.891-0.326-2.16-0.922-3.81-1.791c-2.953-1.605-4.581-3.95-4.884-7.033l-0.13-0.912
				l-0.065-1.107l-0.065-1.237v-0.781c0-1.519,0.098-3.19,0.293-5.014c0.195-1.823,0.433-3.288,0.716-4.395
				c0.282-1.107,0.705-2.182,1.27-3.224l0.651-1.172c0.781-1.172,1.487-1.996,2.116-2.475c0.629-0.477,1.4-0.716,2.312-0.716
				c0.607,0,1.41,0.108,2.409,0.325c0.303,0.088,0.999,0.261,2.084,0.521l1.758,0.651c2.256,1.085,3.874,1.986,4.851,2.702
				c0.977,0.716,1.703,1.595,2.181,2.637c0.477,1.042,0.716,2.063,0.716,3.061c0,1.606-0.608,3.104-1.823,4.493
				c-0.348,0.435-0.63,0.76-0.847,0.977c-0.217,0.174-0.434,0.348-0.651,0.521c-1.346,0.999-2.258,1.606-2.735,1.823
				c-0.479,0.218-1.498,0.521-3.061,0.912l-2.279,0.521l-0.261,0.065c-0.391,0.044-0.771,0.076-1.139,0.098
				C260.786,262.965,260.298,262.975,259.691,262.975z M267.179,254.38c0.391-1.172,0.586-2.105,0.586-2.8
				c0-0.391-0.022-0.694-0.065-0.912c-0.174-0.694-0.553-1.237-1.14-1.628c-0.586-0.391-1.227-0.499-1.921-0.325
				c-0.999,0.304-1.846,1.042-2.54,2.214c-0.825,1.39-1.455,3.43-1.888,6.121l-0.195,1.889c0.607,0,1.161-0.065,1.66-0.195
				c0.499-0.13,1.052-0.326,1.661-0.586c0.912-0.477,1.703-1.042,2.377-1.693C266.386,255.813,266.875,255.118,267.179,254.38z"/>
		</g>
		<g>
			<path d="M331.512,249.887c-0.174,0.043-0.325,0.065-0.456,0.065c-0.218,0-0.369,0-0.456,0c-0.521,0-0.977-0.065-1.368-0.195
				c-1.737-0.521-2.909-1.128-3.516-1.823c-0.608-0.694-1.085-1.996-1.433-3.907l-0.13-1.237v-0.26l-0.065-2.67l-0.065-0.456
				l-0.13-3.19c0-1.954-0.228-3.277-0.684-3.972c-0.456-0.694-1.465-1.042-3.028-1.042c-0.955,0-2.257,0.13-3.907,0.391
				c-0.912,0.087-1.813,0.434-2.702,1.042c-0.891,0.608-1.813,1.542-2.768,2.8c-0.521,0.738-0.977,1.541-1.367,2.409
				c-0.521,1.172-1.172,2.844-1.954,5.014c-1.346,3.864-2.171,7.467-2.475,10.81c-0.13,1.693-0.195,3.083-0.195,4.167
				c0,1.215,0.065,2.213,0.195,2.995c0.434,2.084,1.052,3.592,1.856,4.525c0.803,0.934,2.247,1.704,4.331,2.312
				c1.128,0.348,2.279,0.521,3.451,0.521c0.304,0,0.629,0,0.977,0c0.477-0.086,0.824-0.13,1.042-0.13
				c1.345-0.173,2.484-0.456,3.418-0.846c0.933-0.391,2.333-1.172,4.2-2.344l1.107-0.781l0.585-0.456l2.149-1.758l0.13-0.13
				l1.628-1.107l1.693-1.368l1.954-1.953c0.13-0.173,0.326-0.261,0.586-0.261c0.303,0,0.727,0.207,1.27,0.619
				c0.542,0.413,0.814,0.988,0.814,1.726c0,1.129-0.739,2.518-2.214,4.167l-0.977,1.042l-2.214,2.279
				c-1,0.999-2.148,1.954-3.451,2.865l-1.823,1.172c-3.516,2.128-6.707,3.191-9.572,3.191c-1.432,0-3.104-0.283-5.014-0.847
				c-2.258-0.694-3.972-1.454-5.144-2.279c-1.172-0.824-2.779-2.387-4.819-4.688c-0.869-0.998-1.53-1.942-1.986-2.833
				c-0.456-0.889-0.804-1.823-1.042-2.8c-0.239-0.977-0.402-1.813-0.488-2.507c-0.087-0.694-0.13-1.367-0.13-2.019
				c0-0.781,0-1.454,0-2.019l0.065-2.67v-0.456l0.456-3.711l0.26-1.172l0.196-1.107l0.26-1.107l0.326-0.977l0.325-1.107
				c0.478-1.735,1.02-3.277,1.628-4.623c1.172-2.604,2.029-4.34,2.572-5.209c0.542-0.868,1.356-1.845,2.442-2.931
				c1.649-1.649,3.103-2.777,4.363-3.386c1.258-0.607,2.756-0.912,4.493-0.912c0.998,0,1.801,0.065,2.409,0.195
				c0.607,0.13,1.367,0.413,2.279,0.847l2.084,0.977l3.842,1.954c1.215,0.825,2.301,1.932,3.256,3.321
				c0.954,1.39,1.779,3.125,2.474,5.209c0.391,1.085,0.673,2.485,0.847,4.2c0.173,1.715,0.261,3.181,0.261,4.396
				C332.164,247.239,331.946,248.584,331.512,249.887z"/>
		</g>
		<g>
			<path d="M349.419,270.203c0.391,0,0.803-0.043,1.237-0.13c0.433-0.087,0.847-0.195,1.237-0.326l2.67-1.563l1.692-0.846
				l1.303-0.521c0.477-0.217,0.867-0.043,1.172,0.521c0.13,0.348,0.195,0.651,0.195,0.912c0,0.955-0.76,2.106-2.279,3.451
				l-1.106,0.912c-1.65,1.128-3.321,1.693-5.014,1.693c-1.563,0-3.256-0.521-5.08-1.563c-1.52-0.868-2.562-1.639-3.125-2.312
				c-0.564-0.672-0.956-1.638-1.172-2.897l-0.13-2.93l-0.326-2.67v-2.604l-0.065-0.26l-0.13-2.345c0-0.086,0.054-0.944,0.163-2.572
				c0.108-1.628,0.163-3.461,0.163-5.502l0.261-4.167l0.326-4.037l0.26-1.823l0.261-2.149l0.195-3.256
				c0-0.347,0.021-0.749,0.065-1.205c0.043-0.456,0.141-1.063,0.293-1.823c0.152-0.759,0.25-1.27,0.293-1.53
				c0.043-0.26,0.065-0.586,0.065-0.977c0-0.564-0.174-1.345-0.521-2.344c-0.174-0.607,0.151-1.182,0.977-1.726
				c0.824-0.542,1.975-0.814,3.451-0.814c1.736,0,2.887,0.12,3.451,0.358c0.563,0.239,0.847,0.728,0.847,1.465
				c0,0.435-0.109,1.129-0.325,2.083c-0.349,1.042-0.609,2.367-0.782,3.972l-0.194,1.628l-0.326,2.409l-0.326,3.061l-0.064,0.977
				l-0.065,1.107l-0.195,2.865v0.26l-0.456,3.777c-0.043,0.304-0.13,1.346-0.261,3.125c-0.13,1.781-0.194,3.386-0.194,4.818
				l-0.065,2.149l-0.065,1.889c0,2.344,0.087,4.395,0.261,6.153c0.173,1.758,0.325,2.941,0.456,3.549
				C348.572,269.053,348.898,269.639,349.419,270.203z"/>
		</g>
		<g>
			<path d="M376.181,249.821l0.781-0.195c1.649,0,2.604,0.369,2.865,1.107l-0.717,1.888c-0.087,0.391-0.185,0.977-0.293,1.758
				c-0.108,0.781-0.25,1.888-0.423,3.321l-0.131,0.912v0.391l-0.064,2.54v1.107l-0.131,2.735c0,1.086,0.195,1.899,0.587,2.442
				c0.391,0.543,0.846,0.728,1.367,0.553c0.303-0.086,0.563-0.195,0.781-0.326c0.607-0.303,1.303-0.737,2.084-1.302l0.716-0.651
				l1.889-1.758c0.391-0.391,0.803-0.282,1.237,0.326c0.261,0.348,0.391,0.76,0.391,1.237c0,0.781-0.435,1.846-1.303,3.19
				c-1.302,1.998-3.061,2.996-5.274,2.996c-0.65,0-1.15-0.021-1.497-0.065c-0.349-0.043-0.891-0.196-1.628-0.456
				c-1.911-0.607-3.321-1.823-4.233-3.646l-0.977,0.912l-0.13,0.13l-1.042,1.498l-0.456,0.586c-1.041,1.129-2.041,1.856-2.995,2.181
				c-0.955,0.326-2.366,0.489-4.232,0.489c-3.126,0-5.438-0.835-6.935-2.507c-1.498-1.671-2.247-4.2-2.247-7.586v-1.042l0.065-0.976
				l0.13-1.693l0.195-2.344l0.717-2.344l0.651-2.344l0.195-0.651l1.106-2.149l0.912-1.563l0.195-0.26l0.977-1.042
				c1.649-1.779,3.363-2.669,5.145-2.669c0.998,0,2.279,0.195,3.842,0.586c2.344,0.564,3.972,1.085,4.883,1.563
				c0.912,0.479,1.736,1.237,2.475,2.279L376.181,249.821z M362.311,269.096c0.217,0.608,0.651,0.912,1.303,0.912
				c0.521,0,1.042-0.196,1.563-0.586l0.651-0.716l0.977-1.237l0.586-0.847l1.042-1.433l0.391-0.586l1.042-2.019
				c0.391-0.998,0.673-2.061,0.847-3.19l0.13-0.977l0.261-1.888l0.13-0.781l0.261-1.758l0.13-0.912l0.261-1.302
				c0.086-0.651-0.239-1.27-0.977-1.856c-0.739-0.585-1.586-0.791-2.54-0.618c-0.999,0.174-1.888,0.716-2.669,1.628
				c-0.782,0.912-1.498,2.301-2.149,4.167l-0.261,0.651l-0.455,1.302l-0.456,1.433l-0.131,0.456
				c-0.087,0.348-0.152,0.673-0.195,0.977c-0.174,1.086-0.26,2.344-0.26,3.777v0.781v0.586c0,1.216,0.032,2.041,0.098,2.475
				C361.953,267.968,362.094,268.488,362.311,269.096z"/>
		</g>
		<g>
			<path d="M394.218,269.617c0.781-0.694,1.455-1.433,2.02-2.214l0.391-0.586l0.391-0.586l1.433-2.93l0.13-0.261l1.042-2.735
				l0.651-1.628l0.586-1.498c0.217-0.434,0.391-0.889,0.521-1.367c0.131-0.478,0.282-1.237,0.456-2.279
				c0.391-2.431,0.856-3.961,1.399-4.591c0.543-0.628,1.727-0.944,3.55-0.944c1.605,0,2.517,0.37,2.734,1.107
				c0.217,0.738,0.326,1.302,0.326,1.693c0,0.348-0.131,0.956-0.392,1.823c-0.043,0.087-0.282,0.847-0.716,2.279l-0.195,4.102
				l-0.065,3.777v0.326l0.391,2.539l0.521,1.693c0.347,0.781,0.867,1.172,1.563,1.172c0.391,0,0.781-0.13,1.172-0.391l1.498-1.237
				l0.781-0.716c0.824-0.607,1.4-0.998,1.726-1.172c0.325-0.173,0.661-0.261,1.01-0.261c0.693-0.086,1.149,0.261,1.367,1.042
				c0.086,0.435,0,0.891-0.261,1.368c-0.261,0.478-0.781,1.042-1.563,1.693l-1.758,1.433l-0.196,0.26
				c-1.91,1.52-3.712,2.279-5.404,2.279c-0.651,0-1.422-0.152-2.312-0.456c-0.891-0.303-1.606-0.759-2.148-1.367
				c-0.544-0.607-1.249-1.78-2.116-3.516l-0.587-1.107l-0.521,1.368c-1.086,2.388-1.997,3.972-2.735,4.753s-1.692,1.172-2.865,1.172
				c-0.304-0.044-0.543-0.065-0.716-0.065l-1.497-0.13l-1.107-0.13c-2.432-0.303-4.081-1.128-4.949-2.475
				c-0.999-1.519-1.497-4.428-1.497-8.726v-6.381l0.064-0.781l0.456-3.451l0.195-2.735c0-1.605,0.163-2.691,0.488-3.256
				c0.326-0.563,1.074-0.847,2.247-0.847c0.26,0,0.586,0.022,0.977,0.065c0.391,0.043,0.693,0.065,0.912,0.065
				c1.563,0.174,2.451,0.63,2.669,1.368l-0.455,2.735l-0.261,2.865l-0.195,1.693l-0.065,1.042l-0.13,3.972v2.8v1.172l0.064,1.107
				l0.065,1.889c0,0.999,0.054,1.726,0.163,2.181C393.577,268.086,393.828,268.749,394.218,269.617z"/>
		</g>
		<g>
			<path d="M414.795,267.078c0.086-0.521,0.465-1.031,1.14-1.53c0.672-0.499,1.117-0.749,1.334-0.749
				c0.173,0,1.259,0.673,3.256,2.019l3.191,1.107c0.521,0.174,1.128,0.315,1.822,0.423c0.694,0.109,1.28,0.163,1.759,0.163
				c0.954-0.13,1.433-0.586,1.433-1.367c0-0.261-0.044-0.456-0.131-0.586c-0.218-0.521-0.999-1.28-2.344-2.279l-0.586-0.391
				l-0.391-0.195l-1.042-0.521l-2.344-1.693l-2.605-1.628c-0.304-0.173-0.521-0.326-0.65-0.456
				c-0.305-0.347-0.761-1.042-1.368-2.083c-0.781-1.259-1.172-2.561-1.172-3.907c0-1.996,0.868-3.95,2.604-5.86
				c1.085-1.215,2.247-2.04,3.483-2.475c1.237-0.433,3.18-0.651,5.828-0.651c0.434,0,0.89,0,1.367,0
				c0.694,0.174,1.28,0.304,1.759,0.391l0.456,0.065l2.344,0.456c1.735,0.304,2.713,0.836,2.931,1.595
				c0.217,0.76,0.325,1.465,0.325,2.116c0,0.999-0.325,1.628-0.977,1.889c-0.348,0.087-0.564,0.13-0.651,0.13
				c-0.305,0-0.63-0.042-0.977-0.13c-0.825-0.261-1.498-0.456-2.019-0.586c-0.521-0.13-0.999-0.195-1.433-0.195
				c-0.479,0-1.064,0.055-1.759,0.163c-0.694,0.109-1.193,0.185-1.497,0.228c-0.261,0.044-0.586,0.153-0.977,0.326
				c-1.563,0.565-2.345,1.628-2.345,3.191c0,0.608,0.195,1.216,0.586,1.823c0.391,0.608,0.804,1.085,1.237,1.433
				c0.434,0.348,1.237,0.89,2.409,1.628l2.149,1.302l0.325,0.195l2.279,1.693c1.433,1.085,2.322,1.823,2.67,2.214
				c0.347,0.391,0.629,1,0.847,1.823c0.217,0.825,0.325,1.39,0.325,1.693c0,0.912-0.293,1.748-0.879,2.507
				c-0.586,0.76-1.574,1.553-2.963,2.377c-0.912,0.521-2.192,0.781-3.842,0.781c-0.825,0-1.846-0.065-3.061-0.195
				c-1.216-0.13-1.911-0.217-2.084-0.261c-0.608-0.217-1.042-0.347-1.302-0.391l-1.628-0.586l-3.321-1.498
				c-1.476-0.693-2.464-1.291-2.963-1.791C414.848,268.304,414.664,267.729,414.795,267.078z"/>
		</g>
		<g>
			<path d="M448.263,262.975l-0.195,1.433c0,1.911,0.249,3.223,0.749,3.939c0.498,0.716,1.465,1.074,2.897,1.074
				c0.607,0,1.345-0.065,2.214-0.195l0.717-0.13l0.391-0.13l1.367-0.586l1.367-0.521l0.261-0.13l0.195-0.13l1.433-0.781
				c0.868-0.521,1.573-0.977,2.116-1.367c0.542-0.391,0.966-0.738,1.27-1.042l0.912-0.977l1.367-1.498
				c0.217-0.217,0.521-0.325,0.911-0.325c0.651,0,1.15,0.348,1.498,1.042c0.131,0.348,0.195,0.651,0.195,0.912
				c0,0.825-0.76,2.149-2.279,3.972c-0.955,1.172-1.866,2.063-2.734,2.67c-0.869,0.608-2.345,1.411-4.428,2.409
				c-0.825,0.391-1.606,0.672-2.345,0.846c-0.738,0.173-1.346,0.304-1.823,0.391s-0.999,0.13-1.563,0.13
				c-0.869,0-1.748-0.163-2.637-0.488c-0.891-0.326-2.16-0.922-3.81-1.791c-2.953-1.605-4.581-3.95-4.884-7.033l-0.131-0.912
				l-0.064-1.107l-0.065-1.237v-0.781c0-1.519,0.098-3.19,0.293-5.014c0.195-1.823,0.434-3.288,0.717-4.395
				c0.281-1.107,0.705-2.182,1.27-3.224l0.651-1.172c0.781-1.172,1.486-1.996,2.116-2.475c0.629-0.477,1.399-0.716,2.312-0.716
				c0.607,0,1.41,0.108,2.409,0.325c0.303,0.088,0.998,0.261,2.084,0.521l1.758,0.651c2.257,1.085,3.874,1.986,4.852,2.702
				c0.977,0.716,1.703,1.595,2.181,2.637s0.717,2.063,0.717,3.061c0,1.606-0.608,3.104-1.823,4.493
				c-0.349,0.435-0.63,0.76-0.847,0.977c-0.218,0.174-0.435,0.348-0.651,0.521c-1.346,0.999-2.258,1.606-2.734,1.823
				c-0.479,0.218-1.498,0.521-3.061,0.912l-2.279,0.521l-0.261,0.065c-0.391,0.044-0.771,0.076-1.139,0.098
				C449.359,262.965,448.871,262.975,448.263,262.975z M455.752,254.38c0.391-1.172,0.586-2.105,0.586-2.8
				c0-0.391-0.022-0.694-0.064-0.912c-0.174-0.694-0.554-1.237-1.14-1.628s-1.228-0.499-1.921-0.325
				c-1,0.304-1.846,1.042-2.54,2.214c-0.825,1.39-1.455,3.43-1.888,6.121l-0.195,1.889c0.606,0,1.16-0.065,1.66-0.195
				c0.498-0.13,1.052-0.326,1.66-0.586c0.912-0.477,1.703-1.042,2.377-1.693C454.96,255.813,455.448,255.118,455.752,254.38z"/>
		</g>
		<g>
			<path d="M477.825,270.203c0.391,0,0.804-0.043,1.237-0.13c0.434-0.087,0.847-0.195,1.237-0.326l2.67-1.563l1.693-0.846
				l1.302-0.521c0.478-0.217,0.868-0.043,1.173,0.521c0.13,0.348,0.195,0.651,0.195,0.912c0,0.955-0.761,2.106-2.279,3.451
				l-1.107,0.912c-1.65,1.128-3.32,1.693-5.014,1.693c-1.563,0-3.256-0.521-5.079-1.563c-1.52-0.868-2.562-1.639-3.125-2.312
				c-0.565-0.672-0.956-1.638-1.173-2.897l-0.13-2.93l-0.326-2.67v-2.604l-0.064-0.26l-0.131-2.345c0-0.086,0.055-0.944,0.163-2.572
				s0.163-3.461,0.163-5.502l0.261-4.167l0.325-4.037l0.261-1.823l0.26-2.149l0.196-3.256c0-0.347,0.021-0.749,0.064-1.205
				c0.043-0.456,0.141-1.063,0.293-1.823c0.151-0.759,0.249-1.27,0.293-1.53c0.043-0.26,0.065-0.586,0.065-0.977
				c0-0.564-0.174-1.345-0.521-2.344c-0.175-0.607,0.151-1.182,0.977-1.726c0.824-0.542,1.975-0.814,3.451-0.814
				c1.735,0,2.886,0.12,3.451,0.358c0.563,0.239,0.847,0.728,0.847,1.465c0,0.435-0.109,1.129-0.326,2.083
				c-0.348,1.042-0.608,2.367-0.781,3.972l-0.195,1.628l-0.326,2.409l-0.325,3.061l-0.065,0.977l-0.064,1.107l-0.195,2.865v0.26
				l-0.456,3.777c-0.044,0.304-0.13,1.346-0.261,3.125c-0.13,1.781-0.195,3.386-0.195,4.818l-0.065,2.149l-0.064,1.889
				c0,2.344,0.086,4.395,0.261,6.153c0.173,1.758,0.325,2.941,0.455,3.549C476.978,269.053,477.304,269.639,477.825,270.203z"/>
		</g>
		<g>
			<path d="M493.388,270.203c0.391,0,0.802-0.043,1.237-0.13c0.433-0.087,0.846-0.195,1.236-0.326l2.67-1.563l1.693-0.846
				l1.303-0.521c0.477-0.217,0.867-0.043,1.172,0.521c0.13,0.348,0.195,0.651,0.195,0.912c0,0.955-0.761,2.106-2.279,3.451
				l-1.107,0.912c-1.649,1.128-3.32,1.693-5.014,1.693c-1.563,0-3.256-0.521-5.079-1.563c-1.521-0.868-2.562-1.639-3.125-2.312
				c-0.565-0.672-0.956-1.638-1.173-2.897l-0.13-2.93l-0.325-2.67v-2.604l-0.065-0.26l-0.13-2.345c0-0.086,0.054-0.944,0.162-2.572
				s0.163-3.461,0.163-5.502l0.261-4.167l0.325-4.037l0.261-1.823l0.261-2.149l0.194-3.256c0-0.347,0.021-0.749,0.065-1.205
				c0.043-0.456,0.141-1.063,0.293-1.823c0.152-0.759,0.25-1.27,0.293-1.53c0.043-0.26,0.065-0.586,0.065-0.977
				c0-0.564-0.174-1.345-0.521-2.344c-0.175-0.607,0.151-1.182,0.977-1.726c0.824-0.542,1.975-0.814,3.451-0.814
				c1.735,0,2.887,0.12,3.451,0.358c0.563,0.239,0.846,0.728,0.846,1.465c0,0.435-0.108,1.129-0.325,2.083
				c-0.348,1.042-0.608,2.367-0.781,3.972l-0.195,1.628l-0.325,2.409l-0.326,3.061l-0.064,0.977l-0.065,1.107l-0.195,2.865v0.26
				l-0.456,3.777c-0.044,0.304-0.13,1.346-0.261,3.125c-0.13,1.781-0.195,3.386-0.195,4.818l-0.064,2.149l-0.065,1.889
				c0,2.344,0.087,4.395,0.261,6.153c0.173,1.758,0.325,2.941,0.455,3.549C492.542,269.053,492.867,269.639,493.388,270.203z"/>
		</g>
	</g>
</g>
</svg>
